HIERARCHY
ROOT hip
{
  OFFSET 0 0 0
  CHANNELS 6 Xposition Yposition Zposition Zrotation Yrotation Xrotation
  JOINT abdomen
  {
    OFFSET 0 20.6881 -0.73152
    CHANNELS 3 Zrotation Xrotation Yrotation
    JOINT chest
    {
      OFFSET 0 11.7043 -0.48768
      CHANNELS 3 Zrotation Xrotation Yrotation
      JOINT neck
      {
        OFFSET 0 22.1894 -2.19456
        CHANNELS 3 Zrotation Xrotation Yrotation
        JOINT head
        {
          OFFSET -0.24384 7.07133 1.2192
          CHANNELS 3 Zrotation Xrotation Yrotation
          JOINT leftEye
          {
            OFFSET 4.14528 8.04674 8.04672
            CHANNELS 3 Zrotation Xrotation Yrotation
            End Site
            {
              OFFSET 1 0 0
            }
          }
          JOINT rightEye
          {
            OFFSET -3.6576 8.04674 8.04672
            CHANNELS 3 Zrotation Xrotation Yrotation
            End Site
            {
              OFFSET 1 0 0
            }
          }
        }
      }
      JOINT rCollar
      {
        OFFSET -2.68224 19.2634 -4.8768
        CHANNELS 3 Zrotation Xrotation Yrotation
        JOINT rShldr
        {
          OFFSET -8.77824 -1.95073 1.46304
          CHANNELS 3 Zrotation Xrotation Yrotation
          JOINT rForeArm
          {
            OFFSET -28.1742 -1.7115 0.48768
            CHANNELS 3 Zrotation Xrotation Yrotation
            JOINT rHand
            {
              OFFSET -22.5879 0.773209 7.07136
              CHANNELS 3 Zrotation Xrotation Yrotation
              JOINT rThumb1
              {
                OFFSET -1.2192 -0.487915 3.41376
                CHANNELS 3 Zrotation Xrotation Yrotation
                JOINT rThumb2
                {
                  OFFSET -3.37035 -0.52449 3.41376
                  CHANNELS 3 Zrotation Xrotation Yrotation
                  End Site
                  {
                    OFFSET -1.78271 -1.18214 1.43049
                  }
                }
              }
              JOINT rIndex1
              {
                OFFSET -7.75947 0.938293 5.60832
                CHANNELS 3 Zrotation Xrotation Yrotation
                JOINT rIndex2
                {
                  OFFSET -2.54057 -0.884171 1.56538
                  CHANNELS 3 Zrotation Xrotation Yrotation
                  End Site
                  {
                    OFFSET -1.62519 -0.234802 1.16502
                  }
                }
              }
              JOINT rMid1
              {
                OFFSET -8.24714 1.18213 3.41376
                CHANNELS 3 Zrotation Xrotation Yrotation
                JOINT rMid2
                {
                  OFFSET -3.10165 -0.590103 1.0647
                  CHANNELS 3 Zrotation Xrotation Yrotation
                  End Site
                  {
                    OFFSET -2.48547 -0.328903 0.83742
                  }
                }
              }
              JOINT rRing1
              {
                OFFSET -8.82822 0.546677 1.51678
                CHANNELS 3 Zrotation Xrotation Yrotation
                JOINT rRing2
                {
                  OFFSET -2.60934 -0.819778 -0.0198488
                  CHANNELS 3 Zrotation Xrotation Yrotation
                  End Site
                  {
                    OFFSET -2.33842 -0.294052 0.168128
                  }
                }
              }
              JOINT rPinky1
              {
                OFFSET -8.27202 -0.0477905 -0.4584
                CHANNELS 3 Zrotation Xrotation Yrotation
                JOINT rPinky2
                {
                  OFFSET -1.82734 -0.647385 -0.700984
                  CHANNELS 3 Zrotation Xrotation Yrotation
                  End Site
                  {
                    OFFSET -1.69225 -0.51767 -0.607171
                  }
                }
              }
            }
          }
        }
      }
      JOINT lCollar
      {
        OFFSET 2.68224 19.2634 -4.8768
        CHANNELS 3 Zrotation Xrotation Yrotation
        JOINT lShldr
        {
          OFFSET 8.77824 -1.95073 1.46304
          CHANNELS 3 Zrotation Xrotation Yrotation
          JOINT lForeArm
          {
            OFFSET 28.1742 -1.7115 0.48768
            CHANNELS 3 Zrotation Xrotation Yrotation
            JOINT lHand
            {
              OFFSET 22.5879 0.773209 7.07136
              CHANNELS 3 Zrotation Xrotation Yrotation
              JOINT lThumb1
              {
                OFFSET 1.2192 -0.487915 3.41376
                CHANNELS 3 Zrotation Xrotation Yrotation
                JOINT lThumb2
                {
                  OFFSET 3.37035 -0.52449 3.41376
                  CHANNELS 3 Zrotation Xrotation Yrotation
                  End Site
                  {
                    OFFSET 1.78271 -1.18214 1.43049
                  }
                }
              }
              JOINT lIndex1
              {
                OFFSET 7.75947 0.938293 5.60832
                CHANNELS 3 Zrotation Xrotation Yrotation
                JOINT lIndex2
                {
                  OFFSET 2.54057 -0.884171 1.56538
                  CHANNELS 3 Zrotation Xrotation Yrotation
                  End Site
                  {
                    OFFSET 1.62519 -0.234802 1.16502
                  }
                }
              }
              JOINT lMid1
              {
                OFFSET 8.24714 1.18213 3.41376
                CHANNELS 3 Zrotation Xrotation Yrotation
                JOINT lMid2
                {
                  OFFSET 3.10165 -0.590103 1.0647
                  CHANNELS 3 Zrotation Xrotation Yrotation
                  End Site
                  {
                    OFFSET 2.48547 -0.328903 0.83742
                  }
                }
              }
              JOINT lRing1
              {
                OFFSET 8.82822 0.546677 1.51678
                CHANNELS 3 Zrotation Xrotation Yrotation
                JOINT lRing2
                {
                  OFFSET 2.60934 -0.819778 -0.0198488
                  CHANNELS 3 Zrotation Xrotation Yrotation
                  End Site
                  {
                    OFFSET 2.33842 -0.294052 0.168128
                  }
                }
              }
              JOINT lPinky1
              {
                OFFSET 8.27202 -0.0477905 -0.4584
                CHANNELS 3 Zrotation Xrotation Yrotation
                JOINT lPinky2
                {
                  OFFSET 1.82734 -0.647385 -0.700984
                  CHANNELS 3 Zrotation Xrotation Yrotation
                  End Site
                  {
                    OFFSET 1.69225 -0.51767 -0.607171
                  }
                }
              }
            }
          }
        }
      }
    }
  }
  JOINT rButtock
  {
    OFFSET -8.77824 4.35084 1.2192
    CHANNELS 3 Zrotation Xrotation Yrotation
    JOINT rThigh
    {
      OFFSET 0 -1.70687 -2.19456
      CHANNELS 3 Zrotation Xrotation Yrotation
      JOINT rShin
      {
        OFFSET 0 -36.8199 0.73152
        CHANNELS 3 Zrotation Xrotation Yrotation
        JOINT rFoot
        {
          OFFSET 0.73152 -45.1104 -5.12064
          CHANNELS 3 Zrotation Xrotation Yrotation
          End Site
          {
            OFFSET -1.1221 -3.69964 12.103
          }
        }
      }
    }
  }
  JOINT lButtock
  {
    OFFSET 8.77824 4.35084 1.2192
    CHANNELS 3 Zrotation Xrotation Yrotation
    JOINT lThigh
    {
      OFFSET 0 -1.70687 -2.19456
      CHANNELS 3 Zrotation Xrotation Yrotation
      JOINT lShin
      {
        OFFSET 0 -36.8199 0.73152
        CHANNELS 3 Zrotation Xrotation Yrotation
        JOINT lFoot
        {
          OFFSET -0.73152 -45.1104 -5.12064
          CHANNELS 3 Zrotation Xrotation Yrotation
          End Site
          {
            OFFSET 1.1221 -3.69964 12.103
          }
        }
      }
    }
  }
}
MOTION
Frames:	5
Frame Time:	0.00833333
13.0346 83.3744 24.2522 -112.213 -80.9851 119.92 15.9998 -7.53653 10.2234 -0.591343 -3.53416 2.27601 0.690641 4.1081 1.55468 12.7914 -12.6861 4.0563 -0.0 0.0 0.0 -0.0 0.0 0.0 -1.48586e-13 -1.36769e-12 4.008e-14 -10.9837 20.733 48.7017 -28.2779 -32.6814 71.565 -0.579398 21.3877 3.14781 6.59883e-11 -3.7209e-11 -7.3645e-10 9.55969e-11 -1.28991e-11 -1.27729e-09 6.59952e-11 -3.7201e-11 -7.36474e-10 7.73091 5.47488 0.417314 6.59862e-11 -3.72086e-11 -7.36446e-10 2.90554 0.965183 0.102902 6.59968e-11 -3.72054e-11 -7.36449e-10 10.2786 0.731801 0.0259123 6.59846e-11 -3.72058e-11 -7.3644e-10 2.22167 -0.733487 -0.20892 -1.48706e-13 -1.3677e-12 3.99091e-14 -7.91756 37.9326 -29.1306 27.6702 -28.8874 -65.4055 0.63746 23.6861 -3.50055 2.02581e-09 1.27163e-09 -6.76358e-11 3.51623e-09 2.1623e-09 -1.57675e-10 2.02581e-09 1.27164e-09 -6.76247e-11 -7.73091 5.47488 -0.417314 2.02581e-09 1.27164e-09 -6.76412e-11 -2.90554 0.965183 -0.102902 2.0258e-09 1.27164e-09 -6.7638e-11 -10.2786 0.731801 -0.0259123 2.02581e-09 1.27164e-09 -6.76479e-11 -2.22167 -0.733487 0.20892 -2.03217e-16 0.0 -3.88251e-19 10.8539 1.05481 3.54675 -0.0827372 14.7845 0.131761 -1.64614 -11.1773 -4.58945 2.03217e-16 0.0 3.88251e-19 11.8872 -36.6624 -2.27783 0.0651746 13.0443 0.202436 1.13933 -0.848762 10.1846
12.2215 83.2632 24.2445 -112.758 -80.7955 120.532 16.1409 -7.56401 10.5953 -0.724797 -3.49599 2.37057 0.556894 3.98285 1.58224 12.8174 -12.4863 4.1224 -0.0 0.0 0.0 -0.0 0.0 0.0 -2.20961e-14 1.46792e-13 -3.9194e-14 -15.102 21.9967 49.8308 -28.291 -32.8062 71.7622 -0.756666 24.114 3.60081 1.64145e-10 7.37967e-10 -1.52997e-09 2.5398e-10 1.35928e-09 -2.65221e-09 1.64155e-10 7.37974e-10 -1.52999e-09 7.73091 5.47488 0.417314 1.64143e-10 7.37967e-10 -1.52996e-09 2.90554 0.965183 0.102902 1.64154e-10 7.37971e-10 -1.52997e-09 10.2786 0.731801 0.0259123 1.64139e-10 7.3797e-10 -1.52996e-09 2.22167 -0.733487 -0.20892 -2.22219e-14 1.46791e-13 -3.92883e-14 -3.35698 41.5168 -31.421 27.9464 -30.3029 -67.6774 1.31553 31.3791 -4.90121 2.15802e-09 1.62051e-09 8.48237e-10 3.75687e-09 2.75698e-09 1.40918e-09 2.15802e-09 1.62052e-09 8.48252e-10 -7.73091 5.47488 -0.417314 2.15803e-09 1.62052e-09 8.48235e-10 -2.90554 0.965183 -0.102902 2.15801e-09 1.62052e-09 8.48239e-10 -10.2786 0.731801 -0.0259123 2.15802e-09 1.62052e-09 8.4823e-10 -2.22167 -0.733487 0.20892 -2.03217e-16 0.0 -3.88251e-19 10.8983 1.33515 3.58722 -0.0857187 15.1162 0.137067 -1.58521 -11.2929 -4.32139 2.03217e-16 0.0 3.88251e-19 11.8486 -36.9067 -2.10686 0.0660293 13.3008 0.20559 1.1543 -0.981199 9.94672
11.3902 83.1547 24.2395 -113.238 -80.6212 121.047 16.226 -7.56417 10.8977 -0.839534 -3.43842 2.4498 0.410471 3.8567 1.5433 12.8324 -12.3423 4.06571 -0.0 0.0 0.0 -0.0 0.0 0.0 5.09566e-14 9.47606e-13 -7.70788e-14 -18.675 22.9965 50.8209 -28.2945 -32.8339 71.8009 -0.926649 26.2454 3.97339 2.40585e-10 9.23859e-10 -1.82598e-09 3.83267e-10 1.69157e-09 -3.16591e-09 2.40597e-10 9.23865e-10 -1.82601e-09 7.73091 5.47488 0.417314 2.40584e-10 9.23858e-10 -1.82598e-09 2.90554 0.965183 0.102902 2.40595e-10 9.23863e-10 -1.82598e-09 10.2786 0.731801 0.0259123 2.40579e-10 9.23862e-10 -1.82598e-09 2.22167 -0.733487 -0.20892 5.08245e-14 9.47606e-13 -7.71284e-14 1.01351 44.4971 -33.7548 28.1573 -31.65 -69.8905 2.24847 38.5343 -6.42652 1.94142e-09 1.59772e-09 1.28751e-09 3.38681e-09 2.74062e-09 2.17138e-09 1.94142e-09 1.59773e-09 1.28753e-09 -7.73091 5.47488 -0.417314 1.94143e-09 1.59773e-09 1.28751e-09 -2.90554 0.965183 -0.102902 1.94141e-09 1.59773e-09 1.28752e-09 -10.2786 0.731801 -0.0259123 1.94142e-09 1.59773e-09 1.28751e-09 -2.22167 -0.733487 0.20892 -2.03217e-16 0.0 -3.88251e-19 10.9192 1.59706 3.62847 -0.0890063 15.5389 0.144683 -1.52252 -11.3751 -4.05612 2.03217e-16 0.0 3.88251e-19 11.7637 -37.093 -1.94436 0.067007 13.6791 0.206454 1.15638 -1.03808 9.70396
10.5387 83.0497 24.2385 -113.682 -80.4708 121.492 16.263 -7.53276 11.1275 -0.933775 -3.3487 2.51328 0.259852 3.71638 1.43537 12.8102 -12.2498 3.87675 -0.0 0.0 0.0 -0.0 0.0 0.0 5.07788e-14 6.78166e-13 -4.46019e-14 -21.6992 23.7418 51.6737 -28.285 -32.7738 71.7333 -1.03968 27.505 4.20146 3.05908e-10 4.82938e-11 -1.29046e-09 5.07977e-10 1.54266e-10 -2.24076e-09 3.05919e-10 4.82985e-11 -1.29049e-09 7.73091 5.47488 0.417314 3.05907e-10 4.82905e-11 -1.29046e-09 2.90554 0.965183 0.102902 3.05918e-10 4.82959e-11 -1.29046e-09 10.2786 0.731801 0.0259123 3.05902e-10 4.82948e-11 -1.29046e-09 2.22167 -0.733487 -0.20892 5.06409e-14 6.78165e-13 -4.4652e-14 5.15329 46.8579 -36.0902 28.3286 -33.0255 -72.0759 3.42059 45.4704 -8.16566 1.09091e-09 9.27359e-10 9.6961e-10 1.908e-09 1.66539e-09 1.65887e-09 1.09091e-09 9.27365e-10 9.69624e-10 -7.73091 5.47488 -0.417314 1.09091e-09 9.27366e-10 9.6961e-10 -2.90554 0.965183 -0.102902 1.0909e-09 9.27366e-10 9.69614e-10 -10.2786 0.731801 -0.0259123 1.0909e-09 9.27368e-10 9.69608e-10 -2.22167 -0.733487 0.20892 -2.03217e-16 0.0 -3.88251e-19 10.9243 1.85579 3.67606 -0.0927918 16.0434 0.15517 -1.46037 -11.4386 -3.79671 2.03217e-16 0.0 3.88251e-19 11.6423 -37.2137 -1.7468 0.0679598 14.2204 0.203562 1.15458 -1.05971 9.45167
9.66932 82.9465 24.2402 -114.085 -80.3502 121.866 16.2631 -7.4754 11.2983 -1.008 -3.23331 2.5639 0.0836292 3.56617 1.25644 12.7824 -12.1927 3.55643 -0.0 0.0 0.0 -0.0 0.0 0.0 1.03574e-14 -2.30204e-13 3.26908e-14 -24.2664 24.2563 52.4094 -28.2652 -32.637 71.5623 -1.0951 28.1558 4.31922 3.79855e-10 -1.49622e-09 -1.93222e-10 6.57317e-10 -2.56217e-09 -3.43799e-10 3.79864e-10 -1.49622e-09 -1.9324e-10 7.73091 5.47488 0.417314 3.79856e-10 -1.49623e-09 -1.93222e-10 2.90554 0.965183 0.102902 3.79865e-10 -1.49622e-09 -1.93223e-10 10.2786 0.731801 0.0259123 3.7985e-10 -1.49622e-09 -1.93218e-10 2.22167 -0.733487 -0.20892 1.02144e-14 -2.30208e-13 3.26131e-14 9.07827 48.6517 -38.3968 28.4384 -34.4457 -74.3016 5.06787 52.3696 -10.3879 -2.78347e-10 -1.62392e-10 2.18085e-10 -4.76106e-10 -9.26568e-11 4.19818e-10 -2.78348e-10 -1.6239e-10 2.18095e-10 -7.73091 5.47488 -0.417314 -2.78343e-10 -1.62389e-10 2.18085e-10 -2.90554 0.965183 -0.102902 -2.78354e-10 -1.62388e-10 2.18088e-10 -10.2786 0.731801 -0.0259123 -2.78346e-10 -1.62387e-10 2.18083e-10 -2.22167 -0.733487 0.20892 -2.03217e-16 0.0 -3.88251e-19 10.9192 2.11158 3.72765 -0.0971163 16.623 0.168513 -1.39758 -11.4845 -3.53867 2.03217e-16 0.0 3.88251e-19 11.4997 -37.282 -1.50071 0.0689792 14.9354 0.196646 1.14929 -1.04736 9.1793
